<mxfile host="app.diagrams.net" modified="2024-03-01T09:08:25.552Z" agent="Mozilla/5.0 (Macintosh; Intel Mac OS X 10_15_7) AppleWebKit/537.36 (KHTML, like Gecko) Chrome/120.0.0.0 Whale/3.24.223.18 Safari/537.36" etag="noQaz0vPtQTdY3dmbma0" version="23.1.5" type="github">
  <diagram name="페이지-1" id="QFWL-PfNEV1lDPDZixy_">
    <mxGraphModel dx="524" dy="997" grid="1" gridSize="10" guides="1" tooltips="1" connect="1" arrows="1" fold="1" page="1" pageScale="1" pageWidth="1169" pageHeight="827" math="0" shadow="0">
      <root>
        <mxCell id="0" />
        <mxCell id="1" parent="0" />
        <mxCell id="oJk1DgS03SrkZ0PKrftB-16" value="" style="rounded=0;whiteSpace=wrap;html=1;fillColor=none;" vertex="1" parent="1">
          <mxGeometry x="60" y="100" width="450" height="320" as="geometry" />
        </mxCell>
        <mxCell id="oJk1DgS03SrkZ0PKrftB-1" value="Inbound &lt;br&gt;Topic" style="rounded=1;whiteSpace=wrap;html=1;" vertex="1" parent="1">
          <mxGeometry x="80" y="240" width="80" height="60" as="geometry" />
        </mxCell>
        <mxCell id="oJk1DgS03SrkZ0PKrftB-3" value="" style="rounded=0;whiteSpace=wrap;html=1;" vertex="1" parent="1">
          <mxGeometry x="200" y="140" width="170" height="260" as="geometry" />
        </mxCell>
        <mxCell id="oJk1DgS03SrkZ0PKrftB-4" value="Kafka Consumer" style="rounded=1;whiteSpace=wrap;html=1;" vertex="1" parent="1">
          <mxGeometry x="245" y="170" width="80" height="60" as="geometry" />
        </mxCell>
        <mxCell id="oJk1DgS03SrkZ0PKrftB-5" value="Message Processing" style="rounded=1;whiteSpace=wrap;html=1;" vertex="1" parent="1">
          <mxGeometry x="245" y="250" width="80" height="60" as="geometry" />
        </mxCell>
        <mxCell id="oJk1DgS03SrkZ0PKrftB-14" style="rounded=0;orthogonalLoop=1;jettySize=auto;html=1;entryX=0;entryY=0.5;entryDx=0;entryDy=0;exitX=0.988;exitY=0.367;exitDx=0;exitDy=0;exitPerimeter=0;" edge="1" parent="1" source="oJk1DgS03SrkZ0PKrftB-6" target="oJk1DgS03SrkZ0PKrftB-11">
          <mxGeometry relative="1" as="geometry" />
        </mxCell>
        <mxCell id="oJk1DgS03SrkZ0PKrftB-6" value="Kafka Procuder" style="rounded=1;whiteSpace=wrap;html=1;" vertex="1" parent="1">
          <mxGeometry x="245" y="330" width="80" height="60" as="geometry" />
        </mxCell>
        <mxCell id="oJk1DgS03SrkZ0PKrftB-7" value="&lt;b&gt;Application&lt;/b&gt;" style="text;html=1;align=center;verticalAlign=middle;whiteSpace=wrap;rounded=0;" vertex="1" parent="1">
          <mxGeometry x="255" y="140" width="60" height="30" as="geometry" />
        </mxCell>
        <mxCell id="oJk1DgS03SrkZ0PKrftB-8" value="" style="endArrow=classic;html=1;rounded=0;exitX=0.5;exitY=1;exitDx=0;exitDy=0;entryX=0.5;entryY=0;entryDx=0;entryDy=0;" edge="1" parent="1" source="oJk1DgS03SrkZ0PKrftB-4" target="oJk1DgS03SrkZ0PKrftB-5">
          <mxGeometry width="50" height="50" relative="1" as="geometry">
            <mxPoint x="190" y="440" as="sourcePoint" />
            <mxPoint x="240" y="390" as="targetPoint" />
          </mxGeometry>
        </mxCell>
        <mxCell id="oJk1DgS03SrkZ0PKrftB-10" value="" style="endArrow=classic;html=1;rounded=0;entryX=0.5;entryY=0;entryDx=0;entryDy=0;exitX=0.5;exitY=1;exitDx=0;exitDy=0;" edge="1" parent="1" source="oJk1DgS03SrkZ0PKrftB-5" target="oJk1DgS03SrkZ0PKrftB-6">
          <mxGeometry width="50" height="50" relative="1" as="geometry">
            <mxPoint x="190" y="440" as="sourcePoint" />
            <mxPoint x="240" y="390" as="targetPoint" />
          </mxGeometry>
        </mxCell>
        <mxCell id="oJk1DgS03SrkZ0PKrftB-15" style="edgeStyle=orthogonalEdgeStyle;rounded=0;orthogonalLoop=1;jettySize=auto;html=1;entryX=0;entryY=0.5;entryDx=0;entryDy=0;" edge="1" parent="1" source="oJk1DgS03SrkZ0PKrftB-11" target="oJk1DgS03SrkZ0PKrftB-12">
          <mxGeometry relative="1" as="geometry" />
        </mxCell>
        <mxCell id="oJk1DgS03SrkZ0PKrftB-11" value="Outbound Topic" style="rounded=1;whiteSpace=wrap;html=1;" vertex="1" parent="1">
          <mxGeometry x="410" y="240" width="80" height="60" as="geometry" />
        </mxCell>
        <mxCell id="oJk1DgS03SrkZ0PKrftB-12" value="Other Application" style="rounded=0;whiteSpace=wrap;html=1;" vertex="1" parent="1">
          <mxGeometry x="530" y="240" width="120" height="60" as="geometry" />
        </mxCell>
        <mxCell id="oJk1DgS03SrkZ0PKrftB-13" style="rounded=0;orthogonalLoop=1;jettySize=auto;html=1;entryX=0;entryY=0.5;entryDx=0;entryDy=0;exitX=1;exitY=0.367;exitDx=0;exitDy=0;exitPerimeter=0;" edge="1" parent="1" source="oJk1DgS03SrkZ0PKrftB-1" target="oJk1DgS03SrkZ0PKrftB-4">
          <mxGeometry relative="1" as="geometry" />
        </mxCell>
        <mxCell id="oJk1DgS03SrkZ0PKrftB-17" value="&lt;b&gt;&lt;font style=&quot;font-size: 14px;&quot;&gt;Exactly-Once Scope&lt;/font&gt;&lt;/b&gt;" style="text;html=1;align=center;verticalAlign=middle;whiteSpace=wrap;rounded=0;" vertex="1" parent="1">
          <mxGeometry x="212.5" y="100" width="145" height="30" as="geometry" />
        </mxCell>
      </root>
    </mxGraphModel>
  </diagram>
</mxfile>
